<svg width="64" height="64" viewBox="0 0 64 64" fill="none" xmlns="http://www.w3.org/2000/svg">
<path d="M45.3203 21.5701L44.6355 19.3162C43.7657 16.7559 40.985 15.3856 38.4247 16.2555C36.9845 16.7448 35.8534 17.8759 35.3641 19.3162L34.6793 21.5701C34.103 23.4709 33.9821 25.4806 34.3262 27.4367C34.6401 29.0837 35.6857 30.4986 37.1678 31.2821L36.4009 48.4266C36.2982 49.3835 36.6086 50.3389 37.2542 51.0527C38.6426 52.5714 40.9994 52.677 42.5181 51.2886C42.6002 51.2135 42.6789 51.1349 42.7539 51.0527C43.3851 50.3591 43.695 49.4318 43.6073 48.4981L42.8361 31.2799C44.3162 30.4961 45.3601 29.0821 45.6734 27.4367C46.0175 25.4806 45.8966 23.4709 45.3203 21.5701ZM43.5721 27.0655C43.3411 28.2487 42.4979 29.2195 41.3587 29.6138C40.9263 29.7763 40.6478 30.1987 40.6686 30.6602L41.4793 48.6666C41.5166 49.0198 41.4001 49.3719 41.1593 49.633C40.517 50.2689 39.4826 50.2689 38.8403 49.633C38.5875 49.3509 38.4727 48.9711 38.5267 48.5962L39.331 30.6602C39.3518 30.1987 39.0733 29.7763 38.6409 29.6138C37.5017 29.2195 36.6585 28.2487 36.4275 27.0655C36.1422 25.4415 36.2427 23.7731 36.7209 22.1951L37.4057 19.9402C37.9355 18.5075 39.5265 17.7757 40.9593 18.3055C41.7167 18.5857 42.3138 19.1829 42.5939 19.9402L43.2787 22.1951C43.7563 23.7733 43.8569 25.4415 43.5721 27.0655Z" fill="#009900"/>
<path d="M28.8 16C28.2109 16 27.7333 16.4776 27.7333 17.0667V26.2251L24.8459 29.1125C24.6323 29.3253 24.5187 29.6188 24.5333 29.92L25.4667 48.5867C25.4889 48.9892 25.3428 49.3829 25.0635 49.6736C24.4796 50.2627 23.5287 50.2669 22.9395 49.6829C22.9363 49.6799 22.9332 49.6767 22.9301 49.6736C22.6507 49.3829 22.5047 48.9892 22.5269 48.5867L23.4667 29.92C23.4816 29.6189 23.3684 29.3256 23.1552 29.1125L20.2667 26.2251V17.0667C20.2667 16.4776 19.7891 16 19.2 16C18.6109 16 18.1333 16.4776 18.1333 17.0667V26.6667C18.1333 26.9496 18.2459 27.2208 18.4459 27.4208L21.3109 30.2869L20.4011 48.4832C20.3043 50.4708 21.8371 52.1607 23.8247 52.2575C25.8123 52.3543 27.5021 50.8215 27.5989 48.8339C27.6047 48.7171 27.6047 48.6001 27.5989 48.4833L26.6891 30.2871L29.5541 27.4209C29.7541 27.2209 29.8667 26.9497 29.8667 26.6668V17.0668C29.8667 16.4776 29.3891 16 28.8 16Z" fill="#009900"/>
<path d="M22.4 16C21.8109 16 21.3333 16.4776 21.3333 17.0667V25.6C21.3333 26.1891 21.8109 26.6667 22.4 26.6667C22.9891 26.6667 23.4667 26.1891 23.4667 25.6V17.0667C23.4667 16.4776 22.9891 16 22.4 16Z" fill="#009900"/>
<path d="M25.5999 16C25.0108 16 24.5332 16.4776 24.5332 17.0667V25.6C24.5332 26.1891 25.0108 26.6667 25.5999 26.6667C26.189 26.6667 26.6666 26.1891 26.6666 25.6V17.0667C26.6666 16.4776 26.189 16 25.5999 16Z" fill="#009900"/>
<path d="M32 0C14.3269 0 0 14.3269 0 32C0 49.6731 14.3269 64 32 64C49.6731 64 64 49.6731 64 32C63.98 14.3352 49.6648 0.02 32 0ZM32 61.8667C15.5051 61.8667 2.13333 48.4949 2.13333 32C2.13333 15.5051 15.5051 2.13333 32 2.13333C48.4949 2.13333 61.8667 15.5051 61.8667 32C61.8479 48.4871 48.4871 61.8479 32 61.8667Z" fill="#009900"/>
<path d="M35.4625 52.0229C35.4053 51.4367 34.8836 51.0077 34.2972 51.0649C34.2835 51.0663 34.2697 51.0679 34.256 51.0697L34.2603 51.0687C32.7585 51.2431 31.2415 51.2431 29.7397 51.0687C29.1544 51 28.6244 51.4188 28.5557 52.0041C28.4871 52.5895 28.9059 53.1195 29.4912 53.1881C31.1567 53.3827 32.8391 53.3827 34.5045 53.1881C35.0908 53.1311 35.5197 52.6093 35.4625 52.0229Z" fill="#009900"/>
<path d="M48.32 18.2548C47.9414 17.8034 47.2686 17.7444 46.8173 18.123C46.8158 18.1242 46.8144 18.1256 46.8128 18.1268C46.3625 18.5065 46.3052 19.1793 46.6848 19.6297C53.1161 27.2644 52.6241 38.5536 45.553 45.5998C45.1357 46.0157 45.1345 46.6913 45.5504 47.1086C45.9662 47.526 46.6418 47.5272 47.0592 47.1113C54.9174 39.2829 55.4654 26.7386 48.32 18.2548Z" fill="#009900"/>
<path d="M37.0314 11.2629C32.8627 10.2638 28.4907 10.5323 24.4756 12.0341C23.9242 12.2414 23.6454 12.8566 23.8527 13.4079C24.009 13.8235 24.4063 14.0986 24.8502 14.099C24.9778 14.0983 25.1042 14.075 25.2234 14.0298C28.8391 12.6777 32.7762 12.4362 36.53 13.3365C37.1027 13.4749 37.6791 13.123 37.8175 12.5503C37.9559 11.9777 37.604 11.4013 37.0314 11.2629Z" fill="#009900"/>
<path d="M18.399 45.5465C14.8032 41.9568 12.7878 37.0809 12.8001 31.9999C12.7896 27.9404 14.0754 23.9836 16.4705 20.706C16.8245 20.2351 16.7297 19.5664 16.2588 19.2124C15.7878 18.8584 15.1192 18.9532 14.7652 19.4242C14.7589 19.4326 14.7528 19.4409 14.7468 19.4495C8.57971 27.9279 9.48717 39.6307 16.8876 47.0569C17.3046 47.4743 17.9812 47.4745 18.3985 47.0575C18.8158 46.6404 18.8161 45.9639 18.399 45.5465Z" fill="#009900"/>
</svg>
