<svg width="64" height="64" viewBox="0 0 64 64" fill="none" xmlns="http://www.w3.org/2000/svg">
<path d="M56.9691 22.0396C56.6835 21.5165 56.0076 21.3133 55.4591 21.5856L55.459 21.5858L50.3322 24.1284H50.3243L32.1597 33.1456L38.3165 14.5398C38.3165 14.5324 38.3254 14.527 38.3276 14.5185L40.0627 9.24314C40.2467 8.68089 39.9186 8.08261 39.3295 7.90614C23.5138 3.04178 6.55888 11.3294 1.4597 26.4173C-3.63947 41.5052 5.0481 57.6797 20.8638 62.5442C20.9848 62.5814 21.106 62.6179 21.2276 62.6536C24.1708 63.5435 27.2396 63.9976 30.3272 64.0003C43.4395 63.9651 55.0245 55.8489 58.984 43.924C61.4075 36.6657 60.6819 28.7837 56.9691 22.0396ZM29.2123 34.9621C29.0272 35.5248 29.3552 36.1242 29.945 36.3009C30.2275 36.3855 30.5335 36.3599 30.7963 36.2297L50.3109 26.544C50.3971 26.7223 50.4889 26.8985 50.5695 27.0779C50.6813 27.3363 50.7933 27.5958 50.9052 27.8585C51.0497 28.2184 51.1796 28.5815 51.3016 28.9467C51.3945 29.2244 51.4851 29.5031 51.5657 29.7829C51.6676 30.1406 51.7548 30.5016 51.8366 30.8636C51.9026 31.154 51.9698 31.4434 52.0225 31.735C52.0873 32.097 52.1344 32.4601 52.1792 32.8242C52.2161 33.1179 52.2564 33.4105 52.2799 33.7052C52.309 34.0779 52.3158 34.4527 52.3235 34.8254C52.3302 35.1127 52.3448 35.3989 52.3381 35.6861C52.3302 36.0823 52.2945 36.4785 52.2631 36.8747C52.2407 37.1395 52.2306 37.4087 52.1993 37.6692C52.1433 38.122 52.0572 38.5726 51.9754 39.0233C51.9362 39.2305 51.9117 39.4387 51.8634 39.6448C51.7157 40.3037 51.5377 40.9604 51.3217 41.6119C49.5742 46.9423 45.6643 51.3846 40.4635 53.9492C40.0045 54.1777 39.5332 54.3688 39.063 54.5643C27.9072 59.2053 14.9197 54.3403 10.0548 43.6978C5.81 34.412 9.11086 23.5588 17.9062 17.8823C18.6128 17.4218 19.3464 17.0003 20.1037 16.6201C20.697 16.3253 21.3025 16.0659 21.9126 15.8256C22.019 15.7829 22.1253 15.7401 22.2328 15.6996C22.8298 15.4768 23.4299 15.2784 24.0328 15.1048C24.1357 15.0749 24.241 15.0503 24.3451 15.0225C24.9362 14.8634 25.5305 14.7246 26.1305 14.6146C26.1776 14.606 26.2246 14.5943 26.2727 14.5858C26.8996 14.479 27.532 14.3957 28.1668 14.3369L28.5362 14.3049C29.163 14.2579 29.7922 14.2323 30.4224 14.2376C30.5197 14.2376 30.616 14.244 30.7123 14.2462C31.2776 14.2568 31.844 14.291 32.4093 14.3444C32.5392 14.3562 32.6679 14.3658 32.7978 14.3797C33.4223 14.4508 34.0464 14.5462 34.6694 14.6658C34.8004 14.6915 34.9314 14.7235 35.0623 14.7513C35.3209 14.8068 35.5784 14.8805 35.837 14.9446L29.2123 34.9621ZM56.8426 43.2778C52.2102 57.2727 36.5624 65.0353 21.8925 60.6161C14.8528 58.4956 8.98339 53.7958 5.5738 47.5493C-1.5501 34.5575 3.71489 18.5165 17.3333 11.7205C23.5651 8.61068 30.8001 7.86716 37.5832 9.63932L36.5176 12.8825C36.287 12.8237 36.0541 12.7896 35.8224 12.7383C35.4865 12.6614 35.1429 12.5888 34.8015 12.5247C34.384 12.4489 33.9675 12.388 33.5489 12.3336C33.1962 12.2866 32.8447 12.2407 32.4921 12.2097C32.0768 12.1723 31.6638 12.1542 31.2496 12.1371C30.8948 12.1232 30.541 12.1072 30.1872 12.1072C29.7697 12.1072 29.3544 12.1307 28.9381 12.1531C28.5888 12.1713 28.2418 12.183 27.8947 12.2161C27.4694 12.2556 27.0463 12.3229 26.6243 12.3827C26.2884 12.4308 25.9526 12.4703 25.6235 12.5322C25.1847 12.6155 24.7503 12.7255 24.3149 12.8312C24.0048 12.907 23.6925 12.97 23.3847 13.0576C22.9201 13.19 22.4623 13.3534 22.0033 13.5136C21.7324 13.6076 21.4582 13.6855 21.1906 13.7902C20.6309 14.0038 20.0881 14.2558 19.544 14.5121C19.3862 14.5868 19.2227 14.6445 19.066 14.7257C18.4156 15.046 17.7921 15.4038 17.182 15.7743C6.60547 22.2216 2.92823 35.2992 8.70254 45.9304C8.7115 45.9475 8.71821 45.9646 8.72717 45.9806C8.74956 46.0212 8.77754 46.0575 8.79881 46.098C11.7664 51.5061 16.8651 55.5674 22.9727 57.3878C23.0063 57.3984 23.0399 57.4038 23.0724 57.4134C23.735 57.6099 24.4022 57.7733 25.0728 57.9142C25.3145 57.9655 25.5575 58.005 25.8003 58.0498C26.276 58.1353 26.753 58.21 27.231 58.2634C27.4974 58.2955 27.7627 58.3264 28.0291 58.351C28.5272 58.3958 29.0254 58.4225 29.5235 58.4375C29.7474 58.445 29.9712 58.461 30.1862 58.4621C30.2264 58.4621 30.2668 58.4621 30.3071 58.4621C30.9183 58.4621 31.5284 58.4322 32.1361 58.3873C32.3208 58.3734 32.5045 58.3574 32.688 58.3392C33.3462 58.2773 34.0022 58.1961 34.6527 58.0819C34.7645 58.0627 34.8765 58.036 34.9884 58.0146C35.5795 57.9078 36.166 57.7669 36.7492 57.612C36.9026 57.5714 37.056 57.5341 37.2082 57.4903C37.8529 57.3066 38.49 57.0941 39.1213 56.8581C39.2623 56.8047 39.4011 56.7513 39.541 56.6936C40.2015 56.432 40.8564 56.1522 41.4978 55.8393C47.222 53.0153 51.5247 48.1246 53.4474 42.2569C53.481 42.1565 53.5001 42.054 53.5314 41.9536C53.7273 41.3353 53.9042 40.7159 54.0441 40.0912C54.0989 39.8456 54.1291 39.5989 54.175 39.3522C54.2668 38.8674 54.3609 38.3836 54.4202 37.8967C54.4538 37.619 54.4628 37.3414 54.4862 37.0627C54.5231 36.6067 54.5635 36.1517 54.5724 35.6968C54.5791 35.4021 54.5623 35.1084 54.5568 34.8137C54.5478 34.3769 54.54 33.9402 54.5042 33.5045C54.4795 33.198 54.4348 32.8936 54.3978 32.5882C54.3452 32.1685 54.2925 31.751 54.2176 31.3345C54.1594 31.0141 54.0843 30.7045 54.0128 30.3894C53.9209 29.9911 53.8269 29.5939 53.7139 29.1987C53.6199 28.8784 53.5113 28.5516 53.4027 28.2291C53.2762 27.8553 53.1452 27.4816 52.9986 27.1142C52.8653 26.7789 52.7187 26.4468 52.5687 26.1157C52.4825 25.9267 52.4153 25.7334 52.3235 25.5455L55.4813 23.9778C58.4842 30.0138 58.9708 36.9126 56.8426 43.2778Z" fill="#009900"/>
<path d="M63.8769 14.2525C60.2464 7.45096 53.8969 2.33124 46.2619 0.0495617C45.6724 -0.127441 45.0442 0.184649 44.8582 0.746892L43.0996 6.06604L36.0552 27.3661C35.9189 27.7789 36.0573 28.2292 36.4056 28.5066C36.7539 28.784 37.2432 28.8334 37.6447 28.6316L58.253 18.273L63.4022 15.6834C63.9445 15.4108 64.156 14.773 63.8769 14.2525ZM45.5186 10.6003C46.446 10.6003 47.1978 11.3175 47.1978 12.2021C47.1978 13.0867 46.446 13.8039 45.5186 13.8039C44.5913 13.8039 43.8395 13.0867 43.8395 12.2021C43.8395 11.3175 44.5913 10.6003 45.5186 10.6003ZM39.0104 25.5315L40.5082 21.0004C40.5899 22.176 41.25 23.2454 42.288 23.8837L39.0104 25.5315ZM44.3993 22.347C43.4719 22.347 42.7201 21.6298 42.7201 20.7452C42.7201 19.8606 43.4719 19.1434 44.3993 19.1434C45.3266 19.1434 46.0784 19.8606 46.0784 20.7452C46.0784 21.63 45.3266 22.347 44.3993 22.347ZM48.3182 20.8584C48.3182 20.8189 48.3306 20.7826 48.3306 20.7431C48.3404 18.6877 46.6016 17.014 44.4472 17.0047C43.2529 16.9995 42.122 17.5165 41.3779 18.4076L42.6014 14.6721C44.0277 16.2299 46.5076 16.3898 48.1407 15.0293C49.7736 13.6687 49.9412 11.3029 48.5151 9.74505C47.5498 8.69064 46.0486 8.23786 44.6233 8.57131L44.8874 7.77573C45.0777 7.84301 45.2714 7.90494 45.4595 7.97756C45.7169 8.07687 45.9732 8.17726 46.2251 8.28511C46.6102 8.44957 46.9863 8.6279 47.3591 8.81265C47.5919 8.92798 47.8281 9.04011 48.0565 9.16398C48.4527 9.37756 48.8401 9.61036 49.2173 9.84743C49.4031 9.96276 49.5946 10.0695 49.777 10.1913C50.315 10.5473 50.8375 10.927 51.3442 11.3307L51.3867 11.3617C51.9017 11.7771 52.3941 12.216 52.8654 12.6805C53.0166 12.8279 53.1565 12.9881 53.3042 13.1397C53.6166 13.4601 53.9243 13.7901 54.2166 14.1328C54.38 14.3251 54.5334 14.5258 54.6901 14.7245C54.9464 15.0448 55.1961 15.3759 55.4334 15.7144C55.5856 15.928 55.7323 16.1554 55.8811 16.3797C55.9931 16.5495 56.0904 16.7267 56.1957 16.8997L48.3182 20.8584ZM58.1881 15.8938C58.0649 15.6877 57.9216 15.4965 57.7918 15.2947C57.6295 15.0416 57.466 14.7885 57.2937 14.5472C57.0351 14.1766 56.7608 13.8189 56.481 13.4654C56.3052 13.2422 56.1339 13.0148 55.9492 12.7991C55.6303 12.4232 55.2922 12.0665 54.9508 11.7119C54.784 11.54 54.6272 11.3595 54.4549 11.1919C53.9366 10.6878 53.3993 10.2041 52.8351 9.74812L52.8182 9.73317C52.2485 9.27398 51.653 8.84362 51.0396 8.43675C50.8392 8.30433 50.6276 8.18793 50.4238 8.06086C50.0008 7.79709 49.5742 7.53866 49.1332 7.30052C48.8802 7.1649 48.6194 7.04316 48.3608 6.91501C47.9478 6.71105 47.5325 6.51349 47.1059 6.33088C46.825 6.21234 46.5406 6.10235 46.254 5.99342C46.0224 5.90479 45.7996 5.8012 45.5645 5.71898L46.6526 2.42241C52.8979 4.55778 58.123 8.77594 61.3638 14.2984L58.1881 15.8938Z" fill="#009900"/>
<path d="M25.3696 17.0078C23.2057 17.0078 21.4517 18.6811 21.4517 20.7454C21.4517 22.8096 23.2057 24.483 25.3696 24.483C27.5334 24.483 29.2875 22.8096 29.2875 20.7454C29.2875 18.6811 27.5334 17.0078 25.3696 17.0078ZM25.3696 22.3472C24.4422 22.3472 23.6904 21.63 23.6904 20.7454C23.6904 19.8608 24.4422 19.1435 25.3696 19.1435C26.2968 19.1435 27.0486 19.8608 27.0486 20.7454C27.0486 21.6301 26.2968 22.3472 25.3696 22.3472Z" fill="#009900"/>
<path d="M14.1752 26.6187C12.0115 26.6187 10.2573 28.2921 10.2573 30.3563C10.2573 32.4206 12.0115 34.094 14.1752 34.094C16.339 34.094 18.0931 32.4206 18.0931 30.3563C18.0931 28.2921 16.339 26.6187 14.1752 26.6187ZM14.1752 31.9582C13.248 31.9582 12.4961 31.241 12.4961 30.3563C12.4961 29.4717 13.248 28.7545 14.1752 28.7545C15.1025 28.7545 15.8543 29.4717 15.8543 30.3563C15.8543 31.2411 15.1025 31.9582 14.1752 31.9582Z" fill="#009900"/>
<path d="M25.3696 26.6187C23.2057 26.6187 21.4517 28.2921 21.4517 30.3563C21.4517 32.4206 23.2057 34.094 25.3696 34.094C27.5334 34.094 29.2875 32.4206 29.2875 30.3563C29.2875 28.2921 27.5334 26.6187 25.3696 26.6187ZM25.3696 31.9582C24.4422 31.9582 23.6904 31.241 23.6904 30.3563C23.6904 29.4717 24.4422 28.7545 25.3696 28.7545C26.2968 28.7545 27.0486 29.4717 27.0486 30.3563C27.0486 31.2411 26.2968 31.9582 25.3696 31.9582Z" fill="#009900"/>
<path d="M36.5634 45.8408C34.3996 45.8408 32.6455 47.5142 32.6455 49.5784C32.6455 51.6426 34.3996 53.316 36.5634 53.316C38.7273 53.316 40.4814 51.6426 40.4814 49.5784C40.4814 47.5142 38.7273 45.8408 36.5634 45.8408ZM36.5634 51.1802C35.6361 51.1802 34.8843 50.463 34.8843 49.5784C34.8843 48.6938 35.6361 47.9766 36.5634 47.9766C37.4908 47.9766 38.2426 48.6938 38.2426 49.5784C38.2426 50.4631 37.4908 51.1802 36.5634 51.1802Z" fill="#009900"/>
<path d="M44.3995 38.3655C42.2356 38.3655 40.4814 40.0388 40.4814 42.1031C40.4814 44.1673 42.2356 45.8407 44.3995 45.8407C46.5632 45.8407 48.3174 44.1673 48.3174 42.1031C48.3174 40.0388 46.5632 38.3655 44.3995 38.3655ZM44.3995 43.7049C43.4721 43.7049 42.7203 42.9877 42.7203 42.1031C42.7203 41.2185 43.4721 40.5012 44.3995 40.5012C45.3267 40.5012 46.0785 41.2185 46.0785 42.1031C46.0785 42.9878 45.3267 43.7049 44.3995 43.7049Z" fill="#009900"/>
<path d="M47.7573 29.8225C45.5935 29.8225 43.8394 31.4958 43.8394 33.5601C43.8394 35.6243 45.5935 37.2977 47.7573 37.2977C49.9212 37.2977 51.6752 35.6243 51.6752 33.5601C51.6752 31.4958 49.9212 29.8225 47.7573 29.8225ZM47.7573 35.1619C46.83 35.1619 46.0782 34.4447 46.0782 33.5601C46.0782 32.6755 46.83 31.9582 47.7573 31.9582C48.6845 31.9582 49.4364 32.6755 49.4364 33.5601C49.4364 34.4448 48.6845 35.1619 47.7573 35.1619Z" fill="#009900"/>
<path d="M15.2949 37.2976C13.131 37.2976 11.377 38.971 11.377 41.0352C11.377 43.0994 13.131 44.7728 15.2949 44.7728C17.4586 44.7728 19.2128 43.0994 19.2128 41.0352C19.2128 38.971 17.4586 37.2976 15.2949 37.2976ZM15.2949 42.637C14.3676 42.637 13.6157 41.9198 13.6157 41.0352C13.6157 40.1506 14.3676 39.4334 15.2949 39.4334C16.2221 39.4334 16.9739 40.1506 16.9739 41.0352C16.9739 41.9199 16.2221 42.637 15.2949 42.637Z" fill="#009900"/>
<path d="M33.205 36.2297C31.0412 36.2297 29.2871 37.9031 29.2871 39.9673C29.2871 42.0315 31.0412 43.7049 33.205 43.7049C35.3688 43.7049 37.1229 42.0315 37.1229 39.9673C37.1229 37.9031 35.3688 36.2297 33.205 36.2297ZM33.205 41.5692C32.2777 41.5692 31.5258 40.8519 31.5258 39.9673C31.5258 39.0827 32.2777 38.3655 33.205 38.3655C34.1323 38.3655 34.8841 39.0827 34.8841 39.9673C34.8841 40.8521 34.1323 41.5692 33.205 41.5692Z" fill="#009900"/>
<path d="M23.1303 45.8408C20.9665 45.8408 19.2124 47.5142 19.2124 49.5784C19.2124 51.6426 20.9665 53.316 23.1303 53.316C25.2941 53.316 27.0482 51.6426 27.0482 49.5784C27.0482 47.5142 25.2941 45.8408 23.1303 45.8408ZM23.1303 51.1802C22.203 51.1802 21.4512 50.463 21.4512 49.5784C21.4512 48.6938 22.203 47.9766 23.1303 47.9766C24.0576 47.9766 24.8094 48.6938 24.8094 49.5784C24.8094 50.4631 24.0576 51.1802 23.1303 51.1802Z" fill="#009900"/>
<path d="M16.9739 22.3472C16.3558 22.3472 15.8545 22.8254 15.8545 23.4151C15.8545 24.0049 16.3558 24.483 16.9739 24.483C17.5921 24.483 18.0933 24.9612 18.0933 25.5509C18.0933 26.1407 18.5945 26.6188 19.2127 26.6188C19.8309 26.6188 20.3322 26.1407 20.3322 25.5509C20.3322 23.7817 18.8287 22.3472 16.9739 22.3472Z" fill="#009900"/>
<path d="M31.5261 44.7727C29.6715 44.7727 28.168 46.207 28.168 47.9764C28.168 48.5661 28.6691 49.0443 29.2874 49.0443C29.9055 49.0443 30.4068 48.5661 30.4068 47.9764C30.4068 47.3866 30.908 46.9085 31.5261 46.9085C32.1444 46.9085 32.6455 46.4303 32.6455 45.8406C32.6455 45.2509 32.1444 44.7727 31.5261 44.7727Z" fill="#009900"/>
<path d="M33.9012 16.252C33.4637 15.835 32.7549 15.8353 32.3178 16.2526C31.875 16.6564 31.1776 16.6564 30.7349 16.2526C30.2977 15.8353 29.5889 15.835 29.1515 16.252C28.714 16.6691 28.7138 17.3453 29.1509 17.7626C30.4621 19.0141 32.5882 19.0147 33.9002 17.764C33.9007 17.7635 33.9012 17.7631 33.9017 17.7626C34.3388 17.3453 34.3386 16.6691 33.9012 16.252Z" fill="#009900"/>
<path d="M41.6008 34.094C39.7462 34.094 38.2427 35.5282 38.2427 37.2976C38.2427 37.8873 38.7438 38.3655 39.3621 38.3655C39.9802 38.3655 40.4815 37.8873 40.4815 37.2976C40.4815 36.7079 40.9827 36.2297 41.6008 36.2297C42.2191 36.2297 42.7202 35.7516 42.7202 35.1618C42.7202 34.5721 42.2191 34.094 41.6008 34.094Z" fill="#009900"/>
<path d="M24.4831 36.0997C24.4825 36.0992 24.4821 36.0988 24.4815 36.0982C24.0442 35.6812 23.3352 35.6815 22.8981 36.0988C22.461 36.516 22.4613 37.1923 22.8986 37.6093C23.3357 38.0263 23.3357 38.7023 22.8986 39.1193C22.461 39.5358 22.4601 40.212 22.8968 40.6295C22.897 40.6298 22.8973 40.6301 22.8976 40.6303C23.3344 41.0476 24.0433 41.048 24.4807 40.6311C24.481 40.6309 24.4813 40.6306 24.4815 40.6303C25.7935 39.3797 25.794 37.3513 24.4831 36.0997Z" fill="#009900"/>
<path d="M51.6755 13.8042C51.0574 13.8042 50.5561 14.2823 50.5561 14.872C50.5561 15.4618 50.055 15.9399 49.4368 15.9399C48.8185 15.9399 48.3174 16.4181 48.3174 17.0078C48.3174 17.5976 48.8185 18.0757 49.4368 18.0757C51.2915 18.0757 52.795 16.6414 52.795 14.872C52.795 14.2823 52.2938 13.8042 51.6755 13.8042Z" fill="#009900"/>
</svg>
