<svg width="64" height="64" viewBox="0 0 64 64" fill="none" xmlns="http://www.w3.org/2000/svg">
<path d="M19.1977 52.7061C17.4307 52.7061 15.998 54.3917 15.998 56.4707C15.998 58.5498 17.4307 60.2354 19.1977 60.2354C20.9647 60.2354 22.3973 58.5498 22.3973 56.4707C22.3973 54.3917 20.9647 52.7061 19.1977 52.7061ZM19.1977 57.7256C18.6087 57.7256 18.1311 57.1637 18.1311 56.4707C18.1311 55.7777 18.6087 55.2159 19.1977 55.2159C19.7867 55.2159 20.2642 55.7777 20.2642 56.4707C20.2642 57.1637 19.7867 57.7256 19.1977 57.7256Z" fill="#009900"/>
<path d="M50.1273 52.7061C48.3603 52.7061 46.9277 54.3917 46.9277 56.4707C46.9277 58.5498 48.3603 60.2354 50.1273 60.2354C51.8943 60.2354 53.3269 58.5498 53.3269 56.4707C53.3269 54.3917 51.8943 52.7061 50.1273 52.7061ZM50.1273 57.7256C49.5383 57.7256 49.0607 57.1637 49.0607 56.4707C49.0607 55.7777 49.5383 55.2159 50.1273 55.2159C50.7163 55.2159 51.1938 55.7777 51.1938 56.4707C51.1938 57.1637 50.7163 57.7256 50.1273 57.7256Z" fill="#009900"/>
<path d="M3.19971 20.0784H5.33279V22.5881H3.19971V20.0784Z" fill="#009900"/>
<path d="M0 25.0981H2.13308V27.608H0V25.0981Z" fill="#009900"/>
<path d="M52.2607 7.52954H58.6599V10.0392H52.2607V7.52954Z" fill="#009900"/>
<path d="M47.9941 7.52954H50.1272V10.0392H47.9941V7.52954Z" fill="#009900"/>
<path d="M34.1294 0H44.7948V2.50981H34.1294V0Z" fill="#009900"/>
<path d="M29.8633 0H31.9964V2.50981H29.8633V0Z" fill="#009900"/>
<path d="M63.9925 64V61.4902H54.8842C55.7935 60.3057 56.3575 58.8113 56.495 57.2236L63.4593 52.5405C63.5087 52.5 63.5556 52.4553 63.5988 52.4062C63.6363 52.3762 63.6723 52.3426 63.7056 52.3071C63.7858 52.2072 63.8514 52.092 63.8998 51.9669C63.905 51.9553 63.9123 51.948 63.917 51.9369C63.9655 51.7948 63.9915 51.6435 63.9936 51.4903C63.9936 51.4761 63.9998 51.4651 63.9998 51.451V40.157C63.9951 40.1201 63.9889 40.084 63.9806 40.0479C63.9821 40.0154 63.9821 39.9822 63.9806 39.9498L61.8475 24.891C61.8428 24.8726 61.8371 24.8537 61.8308 24.8359C61.8308 24.8224 61.8308 24.8071 61.8308 24.7935L60.7643 19.774C60.645 19.214 60.2169 18.8218 59.7264 18.8236H46.7893C46.6446 18.2121 46.3696 17.6533 45.9905 17.201L38.708 8.6325C38.1096 7.92407 37.2951 7.52708 36.4457 7.52955H10.6654C10.0764 7.52955 9.59888 8.09138 9.59888 8.7844V13.804H0V16.3139H9.59888V20.0785H7.4658V22.5883H9.59888V25.0982H4.26617V27.6079H9.59888V38.902C9.00989 38.902 8.53234 39.4639 8.53234 40.157V51.451C8.53234 51.4773 8.54432 51.5 8.54536 51.5276C8.55161 51.641 8.57088 51.7531 8.60264 51.8603C8.61254 51.9002 8.62451 51.9394 8.63805 51.978C8.68805 52.1097 8.75679 52.2298 8.84168 52.3334L12.8178 57.0117C12.9198 58.6752 13.4911 60.2519 14.441 61.4902H0V64H63.9925ZM44.1016 53.9608H25.2236C25.0929 53.5258 24.9278 53.1054 24.731 52.7059H44.5943C44.3974 53.1054 44.2323 53.5258 44.1016 53.9608ZM25.597 56.4706H43.7282C43.7288 58.3254 44.3141 60.114 45.3708 61.4902H23.9545C25.0111 60.114 25.5965 58.3254 25.597 56.4706ZM45.8613 56.4706C45.8613 53.6985 47.7715 51.451 50.1275 51.451C52.4835 51.451 54.3937 53.6985 54.3937 56.4706C54.3937 59.2427 52.4835 61.4902 50.1275 61.4902C47.7715 61.4902 45.8613 59.2427 45.8613 56.4706ZM56.2898 54.4626C56.145 53.8481 55.9336 53.2574 55.6607 52.7059H58.9093L56.2898 54.4626ZM61.6662 38.902H51.194V26.353H59.8894L61.6662 38.902ZM59.4269 23.8432H50.1275C49.5385 23.8432 49.0609 24.4051 49.0609 25.0982V40.157C49.0609 40.85 49.5385 41.4118 50.1275 41.4118H61.8595V43.9216H58.6598V46.4314H61.8595V50.1961H53.6578C51.519 48.5227 48.736 48.5227 46.5972 50.1961H22.7281C20.5893 48.5227 17.8063 48.5227 15.6674 50.1961H10.6654V45.1765H14.9316V42.6667H10.6654V41.4118H45.8613C46.4503 41.4118 46.9279 40.85 46.9279 40.157V21.3334H58.8937L59.4269 23.8432ZM11.732 27.6079H20.2643V25.0982H11.732V22.5883H21.3308V20.0785H11.732V16.3139H17.0647V13.804H11.732V10.0393H36.4457C36.7285 10.0405 36.9993 10.1729 37.1998 10.4069L44.4823 18.9756C44.6828 19.2109 44.7948 19.5307 44.7948 19.864V38.902H11.732V27.6079ZM13.6646 52.7059C13.4766 53.087 13.3177 53.4878 13.1901 53.9019L12.1736 52.7059H13.6646ZM14.9316 56.4706C14.9316 53.6985 16.8418 51.451 19.1978 51.451C21.5537 51.451 23.4639 53.6985 23.4639 56.4706C23.4639 59.2427 21.5537 61.4902 19.1978 61.4902C16.8418 61.4902 14.9316 59.2427 14.9316 56.4706Z" fill="#009900"/>
</svg>
